<svg width="90" height="71" viewBox="0 0 90 71" fill="none" xmlns="http://www.w3.org/2000/svg">
<g id="debats">
<path id="Vector" d="M65 25.0679C65 11.2179 50.4531 0 32.5 0C14.5469 0 0 11.2179 0 25.0679C0 30.4419 2.20312 35.3928 5.9375 39.482C3.84375 44.2136 0.390625 47.9738 0.34375 48.0208C0 48.3811 -0.09375 48.9138 0.109375 49.3838C0.3125 49.8539 0.75 50.1359 1.25 50.1359C6.96875 50.1359 11.7031 48.2088 15.1094 46.219C20.1406 48.6788 26.0938 50.1359 32.5 50.1359C50.4531 50.1359 65 38.918 65 25.0679ZM84.0625 59.5363C87.7969 55.4628 90 50.4962 90 45.1223C90 34.6408 81.6406 25.6633 69.7969 21.9188C69.9375 22.9528 70 24.0025 70 25.0679C70 41.6598 53.1719 55.1495 32.5 55.1495C30.8125 55.1495 29.1719 55.0241 27.5469 54.8518C32.4688 63.8606 44.0312 70.1902 57.5 70.1902C63.9062 70.1902 69.8594 68.7488 74.8906 66.2734C78.2969 68.2631 83.0312 70.1902 88.75 70.1902C89.25 70.1902 89.7031 69.8925 89.8906 69.4382C90.0938 68.9838 90 68.4511 89.6562 68.0751C89.6094 68.0281 86.1562 64.2836 84.0625 59.5363Z" fill="black"/>
</g>
</svg>
