<svg width="90" height="64" viewBox="0 0 90 64" fill="none" xmlns="http://www.w3.org/2000/svg">
<g id="taza">
<path id="Vector" d="M27.004 49.6875H54.004C61.4571 49.6875 67.504 43.6177 67.504 36.1364H72.004C81.9321 36.1364 90.004 28.0339 90.004 18.0682C90.004 8.10245 81.9321 0 72.004 0H16.879C15.0086 0 13.504 1.51039 13.504 3.38778V36.1364C13.504 43.6177 19.5508 49.6875 27.004 49.6875ZM72.004 9.03409C76.968 9.03409 81.004 13.0853 81.004 18.0682C81.004 23.051 76.968 27.1023 72.004 27.1023H67.504V9.03409H72.004ZM78.7118 63.2386H6.79614C0.102395 63.2386 -1.78198 54.2045 1.73364 54.2045H83.7602C87.2758 54.2045 85.4196 63.2386 78.7118 63.2386Z" fill="black"/>
</g>
</svg>
